<svg width="105" height="104" viewBox="0 0 105 104" fill="none" xmlns="http://www.w3.org/2000/svg">
<rect x="1.25" y="0.75" width="102.5" height="102.5" rx="7.09272" fill="black"/>
<rect x="1.25" y="0.75" width="102.5" height="102.5" rx="7.09272" stroke="#595959" stroke-width="1.5"/>
<path d="M51.709 36.5315H54.2871C54.5163 36.5315 54.6309 36.6461 54.6309 36.8752V67.1252C54.6309 67.3544 54.5163 67.469 54.2871 67.469H51.709C51.4798 67.469 51.3652 67.3544 51.3652 67.1252V36.8752C51.3652 36.6461 51.4798 36.5315 51.709 36.5315Z" fill="white"/>
<path d="M39.2461 50.3674H68.1211C68.3503 50.3674 68.4648 50.482 68.4648 50.7112V53.2893C68.4648 53.5184 68.3503 53.633 68.1211 53.633H37.8711C37.6419 53.633 37.5273 53.5184 37.5273 53.2893V50.7112C37.5273 50.482 37.6419 50.3674 37.8711 50.3674H39.2461Z" fill="white"/>
</svg>
