<svg width="287" height="77" viewBox="0 0 287 77" fill="none" xmlns="http://www.w3.org/2000/svg">
<g clip-path="url(#clip0_4_147)">
<path d="M39.4633 72.0368C35.146 72.7894 30.7527 73.0151 26.2081 73.6161L12.3463 33.3117V75.3459C8.02899 75.7969 4.09031 76.3985 0 77V0H11.5136L27.2684 43.6891V0H39.4633V72.0368ZM63.3233 28.1983C68.0198 28.1983 75.2156 27.9726 79.5329 27.9726V40.0036C74.1547 40.0036 67.8682 40.0036 63.3233 40.2292V58.126C70.4436 57.675 77.5637 57.0729 84.7592 56.8473V68.4267L51.2037 71.0591V0H84.7592V12.0313H63.3233V28.1983ZM129.828 12.0315H117.254V67.3752C113.164 67.3752 109.073 67.3752 105.135 67.5252V12.0315H92.5617V0H129.828L129.828 12.0315ZM149.521 27.3713H166.11V39.4023H149.521V66.6985H137.629V0H171.488V12.0313H149.521V27.3713ZM191.182 56.1709C198.075 56.3208 205.043 56.8481 211.784 57.2234V69.1045C200.953 68.4272 190.121 67.7514 179.062 67.5252V0H191.182V56.1709ZM222.01 69.9317C225.873 70.1576 229.963 70.3832 233.902 70.8337V0H222.01V69.9317ZM287 0L271.623 36.6202L287 77C282.455 76.3985 277.91 75.5713 273.365 74.8192L264.655 52.5618L255.794 73.0151C251.399 72.2625 247.158 72.0368 242.765 71.4352L258.369 36.1686L244.28 0H257.307L265.261 20.2276L273.744 0H287V0Z" fill="#E10914"/>
</g>
<defs>
<clipPath id="clip0_4_147">
<rect width="287" height="77" fill="white"/>
</clipPath>
</defs>
</svg>
